<svg
	width="17"
	height="17"
	viewBox="0 0 17 17"
	fill="none"
	stroke="currentColor"
	xmlns="http://www.w3.org/2000/svg"
>
	<rect
		x="14.7617"
		y="8.70312"
		width="1"
		height="2.51631"
		rx="0.5"
		fill="currentColor"
		stroke-width="0"
		transform="rotate(45 14.7617 8.70312)"
	/>
	<rect
		width="1"
		height="2.51631"
		rx="0.5"
		fill="currentColor"
		stroke-width="0"
		transform="matrix(0.707107 -0.707107 -0.707107 -0.707107 14.7617 10.1016)"
	/>
	<rect
		x="14.8008"
		y="8.90234"
		width="1"
		height="6"
		rx="0.5"
		fill="currentColor"
		stroke-width="0"
		transform="rotate(90 14.8008 8.90234)"
	/>
	<path
		d="M12.3008 6.90234V3.40234C12.3008 2.85006 11.8531 2.40234 11.3008 2.40234H5.30078C4.7485 2.40234 4.30078 2.85006 4.30078 3.40234V14.4023C4.30078 14.9546 4.7485 15.4023 5.30078 15.4023H11.3008C11.8531 15.4023 12.3008 14.9546 12.3008 14.4023V11.9023"
		stroke-linecap="round"
	/>
	<rect
		x="7.80078"
		y="3.90234"
		width="1"
		height="3"
		rx="0.5"
		fill="currentColor"
		stroke-width="0"
	/>
	<rect
		x="9.80078"
		y="4.90234"
		width="1"
		height="3"
		rx="0.5"
		fill="currentColor"
		stroke-width="0"
		transform="rotate(90 9.80078 4.90234)"
	/>
	<rect
		x="9.80078"
		y="12.9023"
		width="1"
		height="3"
		rx="0.5"
		fill="currentColor"
		stroke-width="0"
		transform="rotate(90 9.80078 12.9023)"
	/>
</svg>
