<svg
	width="16"
	height="17"
	viewBox="0 0 16 17"
	fill="none"
	xmlns="http://www.w3.org/2000/svg"
	>
	<path
		d="M12.3008 3.40234V14.4023C12.3008 14.9546 11.8531 15.4023 11.3008 15.4023H5.30078C4.7485 15.4023 4.30078 14.9546 4.30078 14.4023V3.40234C4.30078 2.85006 4.7485 2.40234 5.30078 2.40234H11.3008C11.8531 2.40234 12.3008 2.85006 12.3008 3.40234Z"
		stroke="currentColor"
		stroke-linecap="round"
	/>
	<path
		d="M8.80078 4.40234C8.80078 4.1262 8.57692 3.90234 8.30078 3.90234C8.02464 3.90234 7.80078 4.1262 7.80078 4.40234V6.40234C7.80078 6.67849 8.02464 6.90234 8.30078 6.90234C8.57692 6.90234 8.80078 6.67849 8.80078 6.40234V4.40234Z"
		fill="currentColor"
	/>
	<path
		d="M9.30078 5.90234C9.57692 5.90234 9.80078 5.67849 9.80078 5.40234C9.80078 5.1262 9.57692 4.90234 9.30078 4.90234H7.30078C7.02464 4.90234 6.80078 5.1262 6.80078 5.40234C6.80078 5.67849 7.02464 5.90234 7.30078 5.90234H9.30078Z"
		fill="currentColor"
	/>
	<path
		d="M9.30078 13.9023C9.57692 13.9023 9.80078 13.6784 9.80078 13.4023C9.80078 13.1261 9.57692 12.9023 9.30078 12.9023H7.30078C7.02464 12.9023 6.80078 13.1261 6.80078 13.4023C6.80078 13.6784 7.02464 13.9023 7.30078 13.9023H9.30078Z"
		fill="currentColor"
	/>
</svg>
