<svg
	width="17"
	height="17"
	viewBox="0 0 17 17"
	fill="none"
	stroke="currentColor"
	xmlns="http://www.w3.org/2000/svg"
>
	<rect
		x="7.76172"
		y="8.60938"
		width="1"
		height="2.51631"
		rx="0.5"
		fill="currentColor"
		stroke-width="0"
		transform="rotate(45 7.76172 8.60938)"
	/>
	<rect
		width="1"
		height="2.51631"
		rx="0.5"
		fill="currentColor"
		stroke-width="0"
		transform="matrix(0.707107 -0.707107 -0.707107 -0.707107 7.76172 10.0078)"
	/>
	<rect
		x="7.80078"
		y="8.80859"
		width="1"
		height="6"
		rx="0.5"
		fill="currentColor"
		stroke-width="0"
		transform="rotate(90 7.80078 8.80859)"
	/>
	<path
		d="M5.30078 6.80859V3.30859C5.30078 2.75631 5.7485 2.30859 6.30078 2.30859H12.3008C12.8531 2.30859 13.3008 2.75631 13.3008 3.30859V14.3086C13.3008 14.8609 12.8531 15.3086 12.3008 15.3086H6.30078C5.7485 15.3086 5.30078 14.8609 5.30078 14.3086V11.8086"
		stroke-linecap="round"
	/>
	<rect
		x="8.80078"
		y="3.80859"
		width="1"
		height="3"
		rx="0.5"
		fill="currentColor"
		stroke-width="0"
	/>
	<rect
		x="10.8008"
		y="4.80859"
		width="1"
		height="3"
		rx="0.5"
		transform="rotate(90 10.8008 4.80859)"
		fill="currentColor"
		stroke-width="0"
	/>
	<rect
		x="10.8008"
		y="12.8086"
		width="1"
		height="3"
		rx="0.5"
		transform="rotate(90 10.8008 12.8086)"
		fill="currentColor"
		stroke-width="0"
	/>
</svg>
