<svg
	width="17"
	height="17"
	viewBox="0 0 17 17"
	fill="none"
	stroke="currentColor"
	xmlns="http://www.w3.org/2000/svg"
>
	<path
		d="M15.2701 2.74399C15.3694 3.69176 15.438 6.52428 13.5646 10.8801C12.8405 12.3388 11.9469 13.2683 11.0074 13.8358C10.0641 14.4056 9.04617 14.6273 8.05284 14.6255C6.04102 14.6217 4.1871 13.701 3.41724 13.0014C2.68982 12.3404 2.13237 10.9999 2.09506 9.44855C2.05823 7.91722 2.53246 6.2676 3.75034 5.00194C4.39332 4.36041 5.31184 3.87623 6.39202 3.52057C7.47015 3.16559 8.67784 2.94886 9.86495 2.82281C12.1978 2.5751 14.398 2.68278 15.2701 2.74399Z"
	/>
	<path
		d="M2.61215 14.7785C2.61215 14.7785 4.47131 10.4958 7.09678 7.73087C9.87427 4.8058 14.9872 2.96473 14.9872 2.96473"
		stroke-linecap="round"
	/>
	<path
		d="M4.83594 10.6992C4.83594 10.6992 5.77959 11.2988 6.77435 11.401C7.76912 11.5032 8.81499 11.1081 8.81499 11.1081"
		stroke-linecap="round"
	/>
	<path
		d="M4.89844 6.57422C4.89844 6.57422 4.35404 7.55076 4.30914 8.54975C4.26424 9.54874 4.71884 10.5702 4.71884 10.5702"
		stroke-linecap="round"
	/>
	<path
		d="M8.7168 6.80859C8.7168 6.80859 9.22158 7.12933 9.75371 7.18401C10.2858 7.23869 10.8453 7.02731 10.8453 7.02731"
		stroke-linecap="round"
	/>
	<path
		d="M8.61719 4.73242C8.61719 4.73242 8.32979 5.16996 8.30958 5.61951C8.28938 6.06905 8.53637 6.53061 8.53637 6.53061"
		stroke-linecap="round"
	/>
</svg>
