<svg
	width="17"
	height="17"
	viewBox="0 0 17 17"
	fill="none"
	stroke="currentColor"
	xmlns="http://www.w3.org/2000/svg"
>
	<path
		fill-rule="evenodd"
		clip-rule="evenodd"
		d="M3.81039 4.02734H3.80078V5.02734V13.2227V14.0273V14.2227H3.82758C4.08806 15.1664 6.21524 15.9023 8.80078 15.9023C11.3863 15.9023 13.5135 15.1664 13.774 14.2227H13.8008V14.0273V13.2227V5.02734V4.02734H13.7912C13.7292 4.42945 13.3702 4.79941 12.8008 5.10254V13.9531C12.7796 13.9776 12.738 14.0194 12.6612 14.0754C12.4915 14.1993 12.2201 14.3394 11.8372 14.4697C11.0744 14.7292 10.0087 14.9023 8.80078 14.9023C7.59288 14.9023 6.52715 14.7292 5.76436 14.4697C5.38143 14.3394 5.11008 14.1993 4.94036 14.0754C4.86358 14.0194 4.82191 13.9776 4.80078 13.9531V5.10254C4.23141 4.79941 3.87238 4.42945 3.81039 4.02734Z"
		stroke-width="0"
		fill="currentColor"
	/>
	<path
		d="M13.3008 6.30273C13.3008 6.83426 10.6261 7.41992 8.78516 7.41992C6.94421 7.41992 4.30078 6.83426 4.30078 6.30273"
		stroke-linecap="square"
	/>
	<path
		d="M13.3008 12.3027C13.3008 12.8343 10.6261 13.4199 8.78516 13.4199C6.94421 13.4199 4.30078 12.8343 4.30078 12.3027"
		stroke-linecap="square"
	/>
	<path
		d="M13.3008 3.90234C13.3008 3.9967 13.255 4.13718 13.0643 4.31756C12.8725 4.49893 12.5682 4.6853 12.1506 4.85232C11.3183 5.18525 10.1342 5.40234 8.80078 5.40234C7.4674 5.40234 6.28327 5.18525 5.45094 4.85232C5.03339 4.6853 4.72904 4.49893 4.53726 4.31756C4.34653 4.13718 4.30078 3.9967 4.30078 3.90234C4.30078 3.80798 4.34653 3.6675 4.53726 3.48713C4.72904 3.30576 5.03339 3.11939 5.45094 2.95237C6.28327 2.61944 7.4674 2.40234 8.80078 2.40234C10.1342 2.40234 11.3183 2.61944 12.1506 2.95237C12.5682 3.11939 12.8725 3.30576 13.0643 3.48713C13.255 3.6675 13.3008 3.80798 13.3008 3.90234Z"
	/>
</svg>
