<svg
	width="17"
	height="17"
	viewBox="0 0 17 17"
	fill="none"
	stroke="currentColor"
	xmlns="http://www.w3.org/2000/svg"
>
	<path
		d="M7.97941 10.7618C8.0128 10.5114 8.2278 10.3252 8.48046 10.328L9.36058 10.3375C9.65668 10.3408 9.88512 10.5992 9.852 10.8934L9.35391 15.3184H7.37187L7.97941 10.7618Z"
		stroke="currentColor"
	/>
	<rect
		x="2.80078"
		y="14.8184"
		width="12"
		height="1"
		rx="0.5"
		stroke-width="0"
		fill="currentColor"
	/>
	<path
		d="M10.1874 8.75634C10.2187 8.50613 10.4314 8.31836 10.6836 8.31836H11.918C12.1702 8.31836 12.3829 8.50613 12.4141 8.75634L13.2344 15.3184H9.36717L10.1874 8.75634Z"
		stroke="currentColor"
	/>
	<mask id="path-4-inside-1_11671_38444" fill="white">
		<path
			fill-rule="evenodd"
			clip-rule="evenodd"
			d="M9.60762 6.64894C9.36083 6.75787 9.08787 6.81836 8.80078 6.81836C7.69621 6.81836 6.80078 5.92293 6.80078 4.81836C6.80078 3.71379 7.69621 2.81836 8.80078 2.81836C9.54916 2.81836 10.2015 3.22941 10.5445 3.83805C11.257 3.95446 11.8008 4.5729 11.8008 5.31836C11.8008 6.14679 11.1292 6.81836 10.3008 6.81836C10.0507 6.81836 9.81494 6.75717 9.60762 6.64894Z"
		/>
	</mask>
	<path
		d="M9.60762 6.64894L10.0704 5.76246L9.64391 5.53984L9.20381 5.7341L9.60762 6.64894ZM10.5445 3.83805L9.67323 4.32892L9.90906 4.74751L10.3832 4.82497L10.5445 3.83805ZM9.20381 5.7341C9.0818 5.78795 8.94617 5.81836 8.80078 5.81836V7.81836C9.22957 7.81836 9.63986 7.72779 10.0114 7.56378L9.20381 5.7341ZM8.80078 5.81836C8.2485 5.81836 7.80078 5.37064 7.80078 4.81836H5.80078C5.80078 6.47521 7.14393 7.81836 8.80078 7.81836V5.81836ZM7.80078 4.81836C7.80078 4.26607 8.2485 3.81836 8.80078 3.81836V1.81836C7.14393 1.81836 5.80078 3.16151 5.80078 4.81836H7.80078ZM8.80078 3.81836C9.17367 3.81836 9.5003 4.022 9.67323 4.32892L11.4157 3.34719C10.9028 2.43682 9.92466 1.81836 8.80078 1.81836V3.81836ZM10.3832 4.82497C10.6199 4.86364 10.8008 5.07084 10.8008 5.31836H12.8008C12.8008 4.07496 11.894 3.04527 10.7057 2.85114L10.3832 4.82497ZM10.8008 5.31836C10.8008 5.5945 10.5769 5.81836 10.3008 5.81836V7.81836C11.6815 7.81836 12.8008 6.69907 12.8008 5.31836H10.8008ZM10.3008 5.81836C10.2157 5.81836 10.1382 5.79789 10.0704 5.76246L9.14486 7.53542C9.49163 7.71645 9.88577 7.81836 10.3008 7.81836V5.81836Z"
		fill="currentColor"
		stroke-width="0"
		mask="url(#path-4-inside-1_11671_38444)"
	/>
	<circle cx="5.30078" cy="3.31836" r="1" stroke="currentColor" />
	<circle cx="6.30078" cy="7.31836" r="0.5" fill="currentColor" />
	<circle cx="3.30078" cy="6.31836" r="1" stroke="currentColor" />
</svg>
