<svg
	width="17"
	height="17"
	viewBox="0 0 17 17"
	fill="none"
	stroke="currentColor"
	xmlns="http://www.w3.org/2000/svg"
>
	<path
		d="M6.86458 9.27077C6.86457 9.2709 6.8631 9.26957 6.86015 9.2664C6.8631 9.26906 6.86458 9.27064 6.86458 9.27077ZM9.41164 3.46316C9.99774 2.93092 10.7543 2.5424 11.7519 2.43339C11.5486 3.70369 11.5644 4.67441 11.7306 5.45805C11.9258 6.37808 12.3203 7.00188 12.7378 7.52013C12.8753 7.69085 13.0229 7.85887 13.1606 8.01562C13.2222 8.08576 13.2819 8.15364 13.3377 8.21849C13.5266 8.43776 13.6939 8.64604 13.8357 8.87375C14.1094 9.31286 14.3091 9.85664 14.3005 10.7082C14.2746 13.2792 12.085 15.4023 9.30064 15.4023C6.5115 15.4023 4.30078 13.2759 4.30078 10.7132C4.30078 9.37247 4.47028 8.16029 4.76964 7.10607C4.87933 7.38464 5.00033 7.68791 5.1246 7.98823C5.34004 8.50892 5.57249 9.0385 5.77874 9.4214C5.87847 9.60654 5.98942 9.79066 6.10511 9.92222C6.15797 9.98234 6.25201 10.0791 6.3858 10.137C6.45956 10.169 6.56365 10.1969 6.68604 10.1826C6.81439 10.1676 6.92262 10.1107 7.00355 10.0364C7.1027 9.94521 7.13798 9.8378 7.14323 9.82181C7.14345 9.82113 7.14362 9.82061 7.14374 9.82027C7.156 9.78461 7.16292 9.75288 7.16659 9.73452C7.17435 9.6958 7.17969 9.65443 7.18364 9.62019C7.19153 9.55174 7.19955 9.45931 7.20842 9.35702L7.20939 9.34594C7.22845 9.12637 7.25463 8.82624 7.29991 8.46958C7.39073 7.75416 7.5569 6.82468 7.88658 5.90703C8.21712 4.98701 8.70171 4.10785 9.41164 3.46316Z"
	/>
	<path
		d="M10.2289 9.46913C10.1752 9.42317 10.1218 9.37832 10.0691 9.33471C10.2313 9.90375 10.3132 10.6042 10.0884 11.3412L10.0882 11.3418C9.97798 11.7015 9.75856 11.9424 9.53271 12.1146C9.37118 12.2378 9.17877 12.3432 9.03203 12.4237C8.99301 12.445 8.95723 12.4647 8.92611 12.4824C8.74901 12.5831 8.65838 12.653 8.60705 12.7229C8.57174 12.7709 8.53007 12.8516 8.54822 13.0388C8.60588 13.5056 8.95184 14.046 9.47449 14.4662C10.0002 14.8888 10.5925 15.1 11.0392 15.0465C11.4511 14.9972 11.8074 14.7094 12.0587 14.2256C12.3104 13.7412 12.4174 13.1245 12.3521 12.5791C12.3198 12.3089 12.244 11.9653 12.0213 11.5191C11.6922 10.8597 10.9564 10.091 10.2289 9.46913Z"
	/>
</svg>
