<svg
	width="17"
	height="17"
	viewBox="0 0 17 17"
	fill="none"
	stroke="currentColor"
	xmlns="http://www.w3.org/2000/svg"
>
	<path
		d="M13.3008 11.3414C13.3008 13.4809 11.3405 15.3086 8.80078 15.3086C6.26104 15.3086 4.30078 13.4809 4.30078 11.3414C4.30078 9.39762 5.31087 7.11295 6.4572 5.27451C7.02466 4.36443 7.61101 3.58692 8.09266 3.04252C8.33452 2.76917 8.54197 2.56369 8.70104 2.43107C8.73967 2.39886 8.77307 2.37295 8.80131 2.35248C8.82953 2.37283 8.8629 2.39858 8.90149 2.43059C9.06047 2.56246 9.26784 2.76685 9.50961 3.03893C9.9911 3.5808 10.5773 4.35525 11.1446 5.26319C12.2904 7.09691 13.3008 9.38173 13.3008 11.3414ZM8.89792 2.29237C8.89788 2.29251 8.89586 2.29348 8.89199 2.29488C8.89604 2.29294 8.89797 2.29224 8.89792 2.29237ZM8.71048 2.29512C8.70667 2.29374 8.70468 2.29279 8.70463 2.29266C8.70459 2.29253 8.70649 2.29322 8.71048 2.29512Z"
	/>
	<path
		d="M11.332 11.3086C10.9414 8.65234 10.3164 7.52734 9.30078 5.98047"
		stroke-linecap="round"
	/>
</svg>
