<svg
	width="17"
	height="17"
	viewBox="0 0 17 17"
	fill="none"
	stroke="currentColor"
	xmlns="http://www.w3.org/2000/svg"
>
	<path
		d="M13.6607 2.03172C13.6647 2.07613 13.6687 2.12402 13.6724 2.17507C13.6964 2.50252 13.7109 2.95559 13.6741 3.45823C13.5989 4.48395 13.3168 5.61874 12.5722 6.36336C11.811 7.12458 10.6491 7.50284 9.63426 7.62328C9.13231 7.68286 8.69641 7.67548 8.40162 7.63276C8.34798 7.62499 8.30249 7.61653 8.26457 7.60814C8.25488 7.21608 8.24309 6.52902 8.33548 5.75617C8.45586 4.74917 8.74146 3.7326 9.33235 3.11695C10.077 2.37479 11.21 2.09338 12.2342 2.01832C12.7368 1.98148 13.1899 1.99605 13.5174 2.02002C13.5684 2.02375 13.6163 2.02771 13.6607 2.03172ZM8.12481 7.56545C8.12329 7.56469 8.1226 7.56428 8.12263 7.56426C8.12266 7.56425 8.12342 7.56463 8.12481 7.56545Z"
		stroke="currentColor"
	/>
	<rect x="7.80078" y="7.60742" width="1" height="8" stroke-width="0" fill="currentColor" />
	<path
		d="M8.31428 7.76154C8.31428 7.76154 9.06695 5.77887 10.3172 4.56036C11.0937 3.80355 12.0483 3.76215 12.0483 3.76215"
		stroke="currentColor"
		stroke-linecap="round"
	/>
	<path
		d="M2.89008 7.03172C2.88607 7.07613 2.88212 7.12402 2.87838 7.17507C2.85442 7.50252 2.83985 7.95559 2.87668 8.45823C2.95186 9.48395 3.23398 10.6187 3.9786 11.3634C4.73982 12.1246 5.90172 12.5028 6.91652 12.6233C7.41847 12.6829 7.85437 12.6755 8.14916 12.6328C8.2028 12.625 8.24829 12.6165 8.28621 12.6081C8.29591 12.2161 8.30769 11.529 8.2153 10.7562C8.09492 9.74917 7.80932 8.7326 7.21843 8.11695C6.47376 7.37479 5.3408 7.09338 4.31659 7.01832C3.81395 6.98148 3.36088 6.99605 3.03343 7.02002C2.98238 7.02375 2.9345 7.02771 2.89008 7.03172ZM8.42597 12.5655C8.42749 12.5647 8.42818 12.5643 8.42815 12.5643C8.42812 12.5643 8.42736 12.5646 8.42597 12.5655Z"
		stroke="currentColor"
	/>
	<path
		d="M8.13596 12.7625C8.13596 12.7625 7.4106 10.731 6.16036 9.51249C5.38385 8.75569 4.40195 8.76309 4.40195 8.76309"
		stroke="currentColor"
		stroke-linecap="round"
	/>
</svg>
