<svg
	width="17"
	height="17"
	viewBox="0 0 17 17"
	fill="none"
	stroke="currentColor"
	xmlns="http://www.w3.org/2000/svg"
>
	<circle cx="8.80078" cy="8.80859" r="2.5" />
	<path
		fill="currentColor"
		stroke="none"
		d="M15.3008 9.30859C15.5769 9.30859 15.8008 9.08474 15.8008 8.80859C15.8008 8.53245 15.5769 8.30859 15.3008 8.30859V9.30859ZM12.8008 9.30859H15.3008V8.30859H12.8008V9.30859Z"
	/>
	<path
		fill="currentColor"
		stroke="none"
		d="M8.30078 15.3086C8.30078 15.5847 8.52464 15.8086 8.80078 15.8086C9.07692 15.8086 9.30078 15.5847 9.30078 15.3086L8.30078 15.3086ZM8.30078 12.8086L8.30078 15.3086L9.30078 15.3086L9.30078 12.8086L8.30078 12.8086Z"
	/>
	<path
		fill="currentColor"
		stroke="none"
		d="M9.30078 2.30859C9.30078 2.03245 9.07692 1.80859 8.80078 1.80859C8.52464 1.80859 8.30078 2.03245 8.30078 2.30859L9.30078 2.30859ZM8.30078 2.30859L8.30078 4.80859L9.30078 4.80859L9.30078 2.30859L8.30078 2.30859Z"
	/>
	<path
		fill="currentColor"
		stroke="none"
		d="M2.30078 8.30859C2.02464 8.30859 1.80078 8.53245 1.80078 8.80859C1.80078 9.08474 2.02464 9.30859 2.30078 9.30859L2.30078 8.30859ZM4.80078 8.30859L2.30078 8.30859L2.30078 9.30859L4.80078 9.30859L4.80078 8.30859Z"
	/>
	<path
		fill="currentColor"
		stroke="none"
		d="M13.0431 13.758C13.2384 13.9533 13.555 13.9533 13.7502 13.758C13.9455 13.5628 13.9455 13.2462 13.7502 13.0509L13.0431 13.758ZM11.2754 11.9903L13.0431 13.758L13.7502 13.0509L11.9825 11.2832L11.2754 11.9903Z"
	/>
	<path
		fill="currentColor"
		stroke="none"
		d="M3.85134 13.0509C3.65607 13.2462 3.65607 13.5628 3.85134 13.758C4.0466 13.9533 4.36318 13.9533 4.55844 13.758L3.85134 13.0509ZM5.6191 11.2832L3.85134 13.0509L4.55844 13.758L6.32621 11.9903L5.6191 11.2832Z"
	/>
	<path
		fill="currentColor"
		stroke="none"
		d="M13.752 4.56644C13.9473 4.37118 13.9473 4.0546 13.752 3.85934C13.5567 3.66408 13.2401 3.66408 13.0449 3.85934L13.752 4.56644ZM13.0449 3.85934L11.2771 5.6271L11.9842 6.33421L13.752 4.56644L13.0449 3.85934Z"
	/>
	<path
		fill="currentColor"
		stroke="none"
		d="M4.55844 3.85915C4.36318 3.66389 4.0466 3.66389 3.85134 3.85915C3.65607 4.05441 3.65607 4.37099 3.85134 4.56626L4.55844 3.85915ZM6.32621 5.62692L4.55844 3.85915L3.85134 4.56626L5.6191 6.33402L6.32621 5.62692Z"
	/>
</svg>
