<svg
	width="17"
	height="17"
	viewBox="0 0 17 17"
	fill="none"
	stroke="currentColor"
	xmlns="http://www.w3.org/2000/svg"
>
	<path
		d="M2.80078 9.30859C2.80078 9.30859 13.2774 9.30836 13.2934 9.30789C14.1302 9.28332 14.8008 8.62147 14.8008 7.80859C14.8008 6.98017 14.1043 6.30859 13.2452 6.30859"
		stroke-linecap="round"
	/>
	<path
		d="M3.80078 6.30859C3.80078 6.30859 9.27743 6.30836 9.29344 6.30789C10.1302 6.28332 10.8008 5.62147 10.8008 4.80859C10.8008 3.98017 10.1043 3.30859 9.24523 3.30859"
		stroke-linecap="round"
	/>
	<path
		d="M5.80078 12.3086C5.80078 12.3086 8.81137 12.3088 8.82052 12.3091C9.46484 12.3086 9.80078 12.7667 9.80078 13.3086C9.80078 13.8609 9.54297 14.3086 8.79297 14.3086"
		stroke-linecap="round"
	/>
</svg>
